# File created by Blade
# Date/Time:  Fri Jan 16 19:49:56 2015
# Frame Rate: 120.000 fps
#------------------------------------------------------
:FULLY-SPECIFIED
:DEGREES
416
root 20.328869 34.962556 -11.281195 -109.122411 0.651147 -177.750621
Spine 70.948833 -0.047213 -10.220377
Head -21.046349 3.978403 0.449017
LeftShoulder -20.042541 16.340291 11.400859
LeftArm -58.653430 11.670880 -102.820144
LeftForeArm 18.751086 -0.000000 -0.898742
LeftHand -1.547936 0.000000 -43.216488
LeftHandThumb1 -26.253704 0.000000 33.147579
RightShoulder -25.510452 -49.255568 -3.760833
RightArm -21.470377 -25.579394 88.367603
RightForeArm -35.814881 -0.000000 7.269438
RightHand 4.315241 -0.000000 48.248875
RightHandThumb1 -24.326973 -0.000000 -32.862282
LeftUpLeg -78.813480 7.285377 2.946308
LeftLeg -4.552121 -0.000000 0.000000
LeftFoot -4.983104 31.080212 -8.026230
LeftToeBase 27.730595 -0.000000 -0.000000
RightUpLeg -78.268894 -1.551672 -6.577779
RightLeg -3.611216 -0.000000 0.000000
RightFoot -7.712229 -19.148876 15.755663
RightToeBase 25.839050 -0.000000 -0.000000
417
root 20.324617 34.960777 -11.283692 -108.874035 0.606252 -177.770154
Spine 71.066893 -0.032964 -10.166018
Head -20.960396 3.930591 0.510001
LeftShoulder -20.058654 16.539488 11.391564
LeftArm -58.706146 11.723211 -102.742344
LeftForeArm 18.843495 -0.000000 -0.910903
LeftHand -1.558902 -0.000000 -43.155900
LeftHandThumb1 -26.253704 0.000000 33.147579
RightShoulder -25.628901 -49.390059 -3.619682
RightArm -21.574093 -25.503024 88.253413
RightForeArm -35.935806 -0.000000 7.261295
RightHand 4.378039 0.000000 48.270124
RightHandThumb1 -24.326973 -0.000000 -32.862282
LeftUpLeg -79.066138 7.266119 2.927318
LeftLeg -4.553421 -0.000000 0.000000
LeftFoot -5.040629 31.040499 -8.103512
LeftToeBase 27.770473 -0.000000 -0.000000
RightUpLeg -78.522219 -1.634842 -6.490351
RightLeg -3.606222 -0.000000 0.000000
RightFoot -7.597169 -19.148907 15.646108
RightToeBase 26.813798 -0.000000 -0.000000
418
root 20.322462 34.959619 -11.288197 -108.621630 0.539411 -177.786040
Spine 71.170033 -0.020408 -10.063215
Head -20.821455 3.886275 0.531234
LeftShoulder -20.022847 16.641690 11.411891
LeftArm -58.870135 11.781238 -102.753485
LeftForeArm 18.827993 -0.000000 -0.948677
LeftHand -1.581593 -0.000000 -43.108028
LeftHandThumb1 -26.253704 0.000000 33.147579
RightShoulder -25.715913 -49.505407 -3.555792
RightArm -21.684520 -25.341482 88.160334
RightForeArm -36.142640 -0.000000 7.213692
RightHand 4.411447 0.000000 48.175387
RightHandThumb1 -24.326973 -0.000000 -32.862282
LeftUpLeg -79.318510 7.244303 2.946674
LeftLeg -4.552834 -0.000000 0.000000
LeftFoot -5.044234 31.007177 -8.105418
LeftToeBase 27.777954 -0.000000 -0.000000
RightUpLeg -78.772190 -1.720636 -6.340026
RightLeg -3.614021 -0.000000 0.000000
RightFoot -7.430397 -19.161433 15.606540
RightToeBase 27.371488 -0.000000 -0.000000
419
root 20.319311 34.958415 -11.292021 -108.378087 0.481564 -177.811893
Spine 71.277696 -0.036674 -10.049491
Head -20.675222 3.955155 0.558755
LeftShoulder -20.088784 16.849707 11.364960
LeftArm -58.949284 11.834412 -102.674920
LeftForeArm 18.884465 -0.000000 -0.967125
LeftHand -1.529903 -0.000000 -43.107619
LeftHandThumb1 -26.253704 0.000000 33.147579
RightShoulder -25.786725 -49.714843 -3.478001
RightArm -21.670070 -25.246923 87.984203
RightForeArm -36.382880 -0.000000 7.196009
RightHand 4.401532 -0.000000 48.236471
RightHandThumb1 -24.326973 -0.000000 -32.862282
LeftUpLeg -79.576257 7.216278 2.938458
LeftLeg -4.530901 -0.000000 0.000000
LeftFoot -5.047618 30.955456 -8.100642
LeftToeBase 27.753252 -0.000000 -0.000000
RightUpLeg -79.022190 -1.809207 -6.210059
RightLeg -3.604300 -0.000000 0.000000
RightFoot -7.292200 -19.179836 15.562033
RightToeBase 27.601729 -0.000000 -0.000000
420
root 20.317488 34.957602 -11.296111 -108.128539 0.438030 -177.834803
Spine 71.364146 -0.009214 -10.009630
Head -20.493672 3.919324 0.611861
LeftShoulder -20.096278 16.957881 11.403143
LeftArm -59.141335 11.840074 -102.608009
LeftForeArm 18.958787 -0.000000 -0.959633
LeftHand -1.562091 0.000000 -43.098493
LeftHandThumb1 -26.253704 0.000000 33.147579
RightShoulder -25.857635 -49.852519 -3.403335
RightArm -21.747072 -25.182901 87.870112
RightForeArm -36.459335 0.000000 7.123318
RightHand 4.411858 0.000000 48.279935
RightHandThumb1 -24.326973 -0.000000 -32.862282
LeftUpLeg -79.834448 7.195379 2.938410
LeftLeg -4.508876 -0.000000 0.000000
LeftFoot -5.127162 30.915414 -8.225738
LeftToeBase 27.779033 -0.000000 -0.000000
RightUpLeg -79.278208 -1.879656 -6.105906
RightLeg -3.586473 -0.000000 0.000000
RightFoot -7.179250 -19.185216 15.452509
RightToeBase 27.831778 -0.000000 -0.000000
421
root 20.315439 34.956969 -11.301276 -107.894697 0.391441 -177.852537
Spine 71.453646 0.005383 -9.961385
Head -20.265734 3.956781 0.617181
LeftShoulder -20.115617 17.207923 11.351771
LeftArm -59.184924 11.862830 -102.462754
LeftForeArm 19.061025 -0.000000 -0.956829
LeftHand -1.519564 -0.000000 -43.087392
LeftHandThumb1 -26.253704 0.000000 33.147579
RightShoulder -25.910166 -50.053665 -3.375889
RightArm -21.800328 -25.100025 87.797899
RightForeArm -36.770070 -0.000000 7.153476
RightHand 4.420214 -0.000000 48.292259
RightHandThumb1 -24.326973 -0.000000 -32.862282
LeftUpLeg -80.081303 7.174739 2.935782
LeftLeg -4.481348 -0.000000 0.000000
LeftFoot -5.150492 30.899089 -8.234369
LeftToeBase 27.763882 -0.000000 -0.000000
RightUpLeg -79.519774 -1.944304 -5.980654
RightLeg -3.566827 -0.000000 0.000000
RightFoot -7.102864 -19.190055 15.352170
RightToeBase 27.920405 -0.000000 -0.000000
422
root 20.313661 34.956931 -11.306681 -107.678782 0.337375 -177.867141
Spine 71.538330 0.038899 -9.913381
Head -19.963983 3.969350 0.695532
LeftShoulder -20.131199 17.460385 11.385189
LeftArm -59.230598 11.829163 -102.290020
LeftForeArm 19.165905 -0.000000 -0.963277
LeftHand -1.493021 -0.000000 -43.113865
LeftHandThumb1 -26.253704 0.000000 33.147579
RightShoulder -25.874987 -50.272875 -3.416508
RightArm -21.833505 -25.028117 87.749943
RightForeArm -36.910693 -0.000000 7.089167
RightHand 4.426990 -0.000000 48.269632
RightHandThumb1 -24.326973 -0.000000 -32.862282
LeftUpLeg -80.311430 7.153782 2.957999
LeftLeg -4.448957 -0.000000 0.000000
LeftFoot -5.137434 30.890418 -8.190726
LeftToeBase 27.712442 -0.000000 -0.000000
RightUpLeg -79.736992 -1.997745 -5.863841
RightLeg -3.547961 -0.000000 0.000000
RightFoot -7.041890 -19.205982 15.238225
RightToeBase 27.808433 -0.000000 -0.000000
423
root 20.309443 34.956661 -11.313102 -107.456007 0.304277 -177.891362
Spine 71.615034 0.065103 -9.867902
Head -19.682754 3.990465 0.715298
LeftShoulder -20.137174 17.759044 11.368504
LeftArm -59.202473 11.757923 -102.020201
LeftForeArm 19.319273 -0.000000 -0.962322
LeftHand -1.500558 -0.000000 -43.097200
LeftHandThumb1 -26.253704 0.000000 33.147579
RightShoulder -25.890415 -50.452410 -3.431635
RightArm -21.909137 -24.990107 87.712399
RightForeArm -37.077875 -0.000000 7.092562
RightHand 4.448724 0.000000 48.299991
RightHandThumb1 -24.326973 -0.000000 -32.862282
LeftUpLeg -80.540274 7.121688 2.959494
LeftLeg -4.427920 -0.000000 0.000000
LeftFoot -5.197675 30.899863 -8.256055
LeftToeBase 27.756612 -0.000000 -0.000000
RightUpLeg -79.952413 -2.053433 -5.788451
RightLeg -3.543618 -0.000000 0.000000
RightFoot -7.000023 -19.240752 15.097839
RightToeBase 27.871466 -0.000000 -0.000000
424
root 20.305911 34.956343 -11.319568 -107.235864 0.298549 -177.912276
Spine 71.677402 0.103562 -9.861579
Head -19.377736 3.974210 0.738728
LeftShoulder -20.147365 17.973572 11.392355
LeftArm -59.281717 11.713467 -101.844974
LeftForeArm 19.352856 -0.000000 -0.974721
LeftHand -1.546477 -0.000000 -43.073910
LeftHandThumb1 -26.253704 0.000000 33.147579
RightShoulder -25.886218 -50.638006 -3.482390
RightArm -21.954699 -24.822323 87.613893
RightForeArm -37.351820 -0.000000 7.079757
RightHand 4.454000 -0.000000 48.344173
RightHandThumb1 -24.326973 -0.000000 -32.862282
LeftUpLeg -80.768258 7.104198 2.923372
LeftLeg -4.397356 -0.000000 0.000000
LeftFoot -5.233809 30.890263 -8.258442
LeftToeBase 27.782904 -0.000000 -0.000000
RightUpLeg -80.169910 -2.092061 -5.764952
RightLeg -3.530255 -0.000000 0.000000
RightFoot -6.968662 -19.299782 14.953295
RightToeBase 27.787280 -0.000000 -0.000000
425
root 20.299944 34.956744 -11.329990 -107.025586 0.277246 -177.929736
Spine 71.750479 0.137497 -9.812487
Head -19.066093 3.988732 0.728982
LeftShoulder -20.139046 18.245938 11.367130
LeftArm -59.282631 11.645471 -101.607669
LeftForeArm 19.429394 -0.000000 -0.944771
LeftHand -1.592169 0.000000 -43.045953
LeftHandThumb1 -26.253704 0.000000 33.147579
RightShoulder -25.917661 -50.842837 -3.493738
RightArm -21.928475 -24.559018 87.470652
RightForeArm -37.678705 -0.000000 7.030671
RightHand 4.387354 -0.000000 48.363768
RightHandThumb1 -24.326973 -0.000000 -32.862282
LeftUpLeg -80.970749 7.076545 2.918255
LeftLeg -4.385380 -0.000000 0.000000
LeftFoot -5.254904 30.906311 -8.223295
LeftToeBase 27.769951 -0.000000 -0.000000
RightUpLeg -80.357059 -2.139513 -5.691615
RightLeg -3.546743 -0.000000 0.000000
RightFoot -6.932965 -19.314591 14.856720
RightToeBase 27.885663 -0.000000 -0.000000
426
root 20.294877 34.957642 -11.339631 -106.814067 0.253125 -177.941228
Spine 71.807439 0.153706 -9.783318
Head -18.733951 4.015740 0.697170
LeftShoulder -20.140087 18.426729 11.332164
LeftArm -59.368675 11.528579 -101.356932
LeftForeArm 19.574773 -0.000000 -0.953580
LeftHand -1.548531 -0.000000 -43.026389
LeftHandThumb1 -26.253704 0.000000 33.147579
RightShoulder -25.862182 -50.970147 -3.603160
RightArm -21.973035 -24.169782 87.311709
RightForeArm -38.195346 -0.000000 6.972395
RightHand 4.436535 -0.000000 48.370191
RightHandThumb1 -24.326973 -0.000000 -32.862282
LeftUpLeg -81.180014 7.052991 2.924579
LeftLeg -4.365057 -0.000000 0.000000
LeftFoot -5.294931 30.934295 -8.237733
LeftToeBase 27.736016 -0.000000 -0.000000
RightUpLeg -80.546456 -2.179825 -5.615059
RightLeg -3.557887 -0.000000 0.000000
RightFoot -6.893240 -19.322679 14.762432
RightToeBase 27.814106 -0.000000 -0.000000
